<svg class="b1rIwt" viewBox="0 0 24 24" focusable="false" aria-hidden="true" xmlns="http://www.w3.org/2000/svg" width="24" height="24" fill="none" data-icon="true">
    <path fill-rule="evenodd" clip-rule="evenodd" d="M12.2499 2.90002C10.1236 2.90002 8.3999 4.62373 8.3999 6.75002V8.00002C8.3999 9.22946 9.25322 10.2596 10.3999 10.5305V11.9H9.9999C9.11625 11.9 8.3999 12.6164 8.3999 13.5V13.6576C8.21918 13.5347 8.06662 13.3692 7.95821 13.1704L6.09526 9.75501C5.63966 8.91973 4.76419 8.40002 3.81273 8.40002H3V9.60002H3.81273C4.32506 9.60002 4.79646 9.87987 5.04179 10.3296L6.90474 13.745C7.36034 14.5803 8.23581 15.1 9.18727 15.1H19.25C19.609 15.1 19.9 15.391 19.9 15.75C19.9 16.109 19.609 16.4 19.25 16.4H7C6.55934 16.4 6.1444 16.1926 5.88 15.84L5.58 15.44C5.08898 14.7853 4.31837 14.4 3.5 14.4H3V15.6H3.5C3.94066 15.6 4.3556 15.8075 4.62 16.16L4.92 16.56C5.41102 17.2147 6.18163 17.6 7 17.6H9.3999V19C9.3999 19.8837 10.1162 20.6 10.9999 20.6H13.9999C14.8836 20.6 15.5999 19.8837 15.5999 19V17.6H19.25C20.2717 17.6 21.1 16.7718 21.1 15.75C21.1 14.7283 20.2717 13.9 19.25 13.9H16.5999V13.5C16.5999 12.6164 15.8836 11.9 14.9999 11.9H14.5999V10.5305C15.7466 10.2596 16.5999 9.22946 16.5999 8.00002V6.75002C16.5999 4.62373 14.8762 2.90002 12.7499 2.90002H12.2499ZM9.5999 6.75002C9.5999 5.28647 10.7863 4.10002 12.2499 4.10002H12.7499C14.2135 4.10002 15.3999 5.28647 15.3999 6.75002V8.00002C15.3999 8.77322 14.7731 9.40002 13.9999 9.40002H10.9999C10.2267 9.40002 9.5999 8.77322 9.5999 8.00002V6.75002ZM13.3999 11.9V10.6H11.5999V11.9H13.3999ZM15.3999 13.9H9.5999V13.5C9.5999 13.2791 9.77899 13.1 9.9999 13.1H14.9999C15.2208 13.1 15.3999 13.2791 15.3999 13.5V13.9ZM10.5999 17.6H14.3999V19C14.3999 19.2209 14.2208 19.4 13.9999 19.4H10.9999C10.779 19.4 10.5999 19.2209 10.5999 19V17.6Z" fill="#150D2C" fill-opacity="0.878431"></path>
</svg>