<svg viewBox="0 0 24 24" aria-hidden="true" class="icon MuiSvgIcon-root Icon_root__4SRWH">
    <path fill-rule="evenodd" clip-rule="evenodd" d="M11.552 3.613a2.6 2.6 0 0 0-3.634.831L6.61 6.594l-2.757-1.93-.688.983 2.82 1.974-2.986 4.905a2.6 2.6 0 0 0 .808 3.535l5.14 3.326a2.6 2.6 0 0 0 3.634-.831l4.92-8.082a2.6 2.6 0 0 0-.809-3.535l-5.14-3.326ZM4.024 13.15 6.97 8.31l1.16.813a3 3 0 1 0 .579-1.06l-1.114-.78 1.348-2.215a1.4 1.4 0 0 1 1.957-.447l5.14 3.326a1.4 1.4 0 0 1 .436 1.903l-4.92 8.082a1.4 1.4 0 0 1-1.956.447l-5.14-3.326a1.4 1.4 0 0 1-.436-1.903ZM12.8 10a1.8 1.8 0 1 1-3.6 0 1.8 1.8 0 0 1 3.6 0ZM19.2 13.832c-.243-.487-.704-.77-1.2-.77s-.957.284-1.2.77a17.568 17.568 0 0 0-.98 2.488c-.241.774-.42 1.531-.42 1.966 0 .658.375 1.24.834 1.634.467.4 1.101.68 1.766.68s1.3-.28 1.765-.68c.46-.394.835-.976.835-1.634 0-.435-.179-1.192-.42-1.966-.25-.8-.595-1.712-.98-2.488Zm-1.325.534a.213.213 0 0 1 .073-.088.097.097 0 0 1 .052-.017c.015 0 .033.005.052.017a.213.213 0 0 1 .073.088c.35.706.674 1.556.91 2.311.243.783.365 1.379.365 1.609 0 .198-.125.474-.416.723-.283.243-.649.391-.984.391-.335 0-.7-.148-.985-.391-.29-.25-.415-.525-.415-.723 0-.23.122-.826.366-1.609.235-.755.558-1.605.91-2.31Z"></path>
</svg>