<svg width="329" height="50" viewBox="0 0 329 50" fill="none" xmlns="http://www.w3.org/2000/svg">
<path d="M0.931374 0.272726H13.6366L27.0557 33.0114H27.6267L41.0457 0.272726H53.751V49H43.7581V17.2844H43.3536L30.7435 48.7621H23.9388L11.3287 17.1655H10.9243V49H0.931374V0.272726ZM72.4698 49.69C70.1381 49.69 68.0603 49.2855 66.2362 48.4766C64.4121 47.6518 62.9686 46.4383 61.9059 44.8363C60.859 43.2184 60.3356 41.204 60.3356 38.793C60.3356 36.7627 60.7083 35.0575 61.4538 33.6776C62.1993 32.2976 63.2145 31.1873 64.4993 30.3466C65.7841 29.5059 67.2434 28.8714 68.8771 28.4432C70.5268 28.0149 72.2557 27.7135 74.0639 27.5391C76.1894 27.317 77.9025 27.1108 79.2031 26.9205C80.5038 26.7143 81.4476 26.4129 82.0344 26.0163C82.6213 25.6198 82.9148 25.0329 82.9148 24.2557V24.1129C82.9148 22.6061 82.4389 21.4402 81.4872 20.6154C80.5514 19.7906 79.219 19.3782 77.4901 19.3782C75.666 19.3782 74.2146 19.7827 73.136 20.5916C72.0574 21.3847 71.3436 22.384 70.9947 23.5895L61.6204 22.8281C62.0962 20.6075 63.0321 18.6882 64.4279 17.0703C65.8237 15.4366 67.6241 14.1835 69.8288 13.3111C72.0495 12.4228 74.6191 11.9787 77.5376 11.9787C79.5679 11.9787 81.511 12.2166 83.3668 12.6925C85.2385 13.1683 86.8961 13.9059 88.3395 14.9052C89.7988 15.9045 90.9487 17.1893 91.7894 18.7596C92.6301 20.314 93.0504 22.1778 93.0504 24.3509V49H83.4382V43.9322H83.1527C82.5658 45.0742 81.7807 46.0814 80.7972 46.9538C79.8138 47.8104 78.6321 48.4845 77.2521 48.9762C75.8722 49.4521 74.2781 49.69 72.4698 49.69ZM75.3725 42.695C76.8635 42.695 78.18 42.4015 79.3221 41.8146C80.4641 41.2119 81.3603 40.4029 82.0107 39.3878C82.661 38.3726 82.9862 37.2227 82.9862 35.9379V32.0597C82.6689 32.2659 82.2327 32.4562 81.6776 32.6307C81.1383 32.7893 80.5276 32.94 79.8455 33.0827C79.1635 33.2096 78.4814 33.3286 77.7994 33.4396C77.1173 33.5348 76.4987 33.622 75.9435 33.7013C74.7539 33.8758 73.715 34.1534 72.8267 34.5341C71.9384 34.9148 71.2485 35.4303 70.7567 36.0806C70.265 36.7151 70.0192 37.5082 70.0192 38.4599C70.0192 39.8398 70.5188 40.8946 71.5181 41.6243C72.5333 42.3381 73.8181 42.695 75.3725 42.695ZM100.724 49V42.9567L118.616 20.8058V20.544H101.342V12.4545H130.821V19.0451L114.024 40.6488V40.9105H131.44V49H100.724Z" fill="#0090DF"/>
<path d="M147.779 49H136.74L153.561 0.272726H166.837L183.635 49H172.595L160.389 11.4077H160.009L147.779 49ZM147.089 29.8469H173.166V37.8888H147.089V29.8469ZM212.745 33.4396V12.4545H222.881V49H213.15V42.3619H212.769C211.944 44.5032 210.572 46.2242 208.653 47.5249C206.749 48.8255 204.426 49.4759 201.682 49.4759C199.239 49.4759 197.09 48.9207 195.234 47.8104C193.378 46.7 191.927 45.1218 190.88 43.0756C189.849 41.0295 189.325 38.5788 189.309 35.7237V12.4545H199.445V33.9155C199.461 36.0727 200.04 37.7778 201.182 39.0309C202.324 40.284 203.855 40.9105 205.774 40.9105C206.995 40.9105 208.137 40.6329 209.2 40.0778C210.263 39.5067 211.119 38.6661 211.77 37.5558C212.436 36.4454 212.761 35.0734 212.745 33.4396ZM250.427 12.4545V20.0682H228.419V12.4545H250.427ZM233.415 3.69886H243.551V37.7699C243.551 38.7057 243.693 39.4354 243.979 39.9588C244.264 40.4664 244.661 40.8233 245.169 41.0295C245.692 41.2357 246.295 41.3388 246.977 41.3388C247.453 41.3388 247.928 41.2991 248.404 41.2198C248.88 41.1246 249.245 41.0533 249.499 41.0057L251.093 48.5479C250.585 48.7066 249.872 48.889 248.952 49.0952C248.032 49.3172 246.913 49.4521 245.597 49.4996C243.154 49.5948 241.013 49.2696 239.173 48.5241C237.349 47.7786 235.929 46.6207 234.914 45.0504C233.899 43.4801 233.399 41.4974 233.415 39.1023V3.69886ZM273.149 49.7138C269.453 49.7138 266.257 48.9286 263.56 47.3583C260.88 45.7721 258.81 43.5674 257.35 40.744C255.891 37.9047 255.161 34.6134 255.161 30.87C255.161 27.0949 255.891 23.7957 257.35 20.9723C258.81 18.133 260.88 15.9283 263.56 14.358C266.257 12.7718 269.453 11.9787 273.149 11.9787C276.844 11.9787 280.033 12.7718 282.713 14.358C285.41 15.9283 287.488 18.133 288.947 20.9723C290.406 23.7957 291.136 27.0949 291.136 30.87C291.136 34.6134 290.406 37.9047 288.947 40.744C287.488 43.5674 285.41 45.7721 282.713 47.3583C280.033 48.9286 276.844 49.7138 273.149 49.7138ZM273.196 41.8622C274.878 41.8622 276.281 41.3864 277.407 40.4347C278.534 39.4671 279.382 38.1506 279.953 36.4851C280.54 34.8196 280.834 32.9241 280.834 30.7987C280.834 28.6732 280.54 26.7777 279.953 25.1122C279.382 23.4467 278.534 22.1302 277.407 21.1626C276.281 20.1951 274.878 19.7113 273.196 19.7113C271.499 19.7113 270.071 20.1951 268.914 21.1626C267.771 22.1302 266.907 23.4467 266.32 25.1122C265.749 26.7777 265.464 28.6732 265.464 30.7987C265.464 32.9241 265.749 34.8196 266.32 36.4851C266.907 38.1506 267.771 39.4671 268.914 40.4347C270.071 41.3864 271.499 41.8622 273.196 41.8622ZM328.133 22.8757L318.854 23.4467C318.696 22.6536 318.355 21.9399 317.831 21.3054C317.308 20.6551 316.618 20.1396 315.761 19.7589C314.921 19.3623 313.913 19.1641 312.74 19.1641C311.169 19.1641 309.845 19.4972 308.766 20.1634C307.688 20.8137 307.148 21.6861 307.148 22.7805C307.148 23.6529 307.497 24.3905 308.195 24.9933C308.893 25.596 310.091 26.0798 311.788 26.4446L318.402 27.777C321.955 28.5066 324.604 29.6804 326.349 31.2983C328.094 32.9162 328.966 35.0417 328.966 37.6747C328.966 40.0698 328.26 42.1715 326.849 43.9798C325.453 45.788 323.533 47.1997 321.091 48.2148C318.664 49.2141 315.864 49.7138 312.692 49.7138C307.854 49.7138 304 48.7066 301.129 46.6921C298.274 44.6618 296.6 41.9019 296.108 38.4123L306.078 37.8888C306.379 39.364 307.109 40.4902 308.267 41.2674C309.424 42.0288 310.907 42.4094 312.716 42.4094C314.492 42.4094 315.92 42.0684 316.998 41.3864C318.093 40.6884 318.648 39.7923 318.664 38.6978C318.648 37.7778 318.259 37.0244 317.498 36.4375C316.737 35.8348 315.563 35.3748 313.977 35.0575L307.648 33.7965C304.079 33.0827 301.422 31.8455 299.677 30.0849C297.948 28.3242 297.084 26.0798 297.084 23.3516C297.084 21.004 297.718 18.9817 298.987 17.2844C300.272 15.5872 302.073 14.2786 304.388 13.3587C306.72 12.4387 309.448 11.9787 312.573 11.9787C317.189 11.9787 320.821 12.9542 323.47 14.9052C326.135 16.8562 327.689 19.513 328.133 22.8757Z" fill="#C1C1C2"/>
</svg>